# xmcd CD database file
#
# Track frame offsets:
#	150
#	32535
#	63558
#	96705
#	125586
#	154161
#	188520
#	215811
#	234523
#
# Disc length: 3458 seconds
#
# Revision: 0
# Processed by: cddbd v1.5.2PL0 Copyright (c) Steve Scherf et al.
# Submitted via: CDex 1.78
#
DISCID=800d8009
DTITLE=CMS (COLINA, MIRALTA Y SAMBEAT) - DANZA GUANA
DYEAR=2015
DGENRE=Jazz
TTITLE0=KALIMBA
TTITLE1=CAMINO DEL BATEY
TTITLE2=UNA CANA AL AIRE
TTITLE3=YOU DON'T KNOW WHAT LOVE IS
TTITLE4=MIRASAMBOLINA
TTITLE5=JURAMENTO
TTITLE6=DANZA GUANA
TTITLE7=DOS MUNDOS
TTITLE8=APOCALYPSO
EXTD=YEAR: 2015
EXTT0=
EXTT1=
EXTT2=
EXTT3=
EXTT4=
EXTT5=
EXTT6=
EXTT7=
EXTT8=
PLAYORDER=
